<?xml version="1.0" ?><svg style="enable-background:new 0 0 512 512;" version="1.1" viewBox="0 0 512 512" xml:space="preserve" xmlns="http://www.w3.org/2000/svg" xmlns:xlink="http://www.w3.org/1999/xlink"><style type="text/css">
	.st0{fill:#1E1E1E;}
	.st1{fill:#464646;stroke:#21759B;stroke-width:2;stroke-miterlimit:10;}
	.st2{fill:#FFFFFF;}
</style><g id="Edges"/><g id="Background_Bottom"><g><path class="st0" d="M492.3,443.1c0,34.2-27.7,61.9-61.9,61.9H80.7c-34.2,0-61.9-27.7-61.9-61.9V93.4c0-34.2,27.7-61.9,61.9-61.9    h349.7c34.2,0,61.9,27.7,61.9,61.9V443.1z"/></g></g><g id="Background"><path class="st1" d="M492.3,418.4c0,34.2-27.7,61.9-61.9,61.9H80.7c-34.2,0-61.9-27.7-61.9-61.9V68.6c0-34.2,27.7-61.9,61.9-61.9   h349.7c34.2,0,61.9,27.7,61.9,61.9V418.4z"/></g><g id="Symbol"><g><path class="st2" d="M286.4,335c0-12.5,0-25,0-37.5c0-9.4,4.3-13.7,13.4-13.7c3.2,0,6.3,0,9.5,0c6.4,0,10.5,3.6,11.4,10.2    c0.3,2.2,0.4,4.5,0.4,6.8c0,23.5,0,47,0,70.4c0,3-0.2,6-1.5,8.7c-1.9,4.1-4.8,6.5-9.6,6.3c-3.6-0.2-7.2,0-10.9,0    c-8.4,0-12.7-4.4-12.7-13.2C286.4,360.3,286.4,347.7,286.4,335z"/><path class="st2" d="M191.7,335c0-12.5,0-25,0-37.5c0-9.4,4.3-13.7,13.4-13.7c3.2,0,6.3,0,9.5,0c6.4,0,10.5,3.6,11.4,10.2    c0.3,2.2,0.4,4.5,0.4,6.8c0,23.5,0,47,0,70.4c0,3-0.2,6-1.5,8.7c-1.9,4.1-4.8,6.5-9.6,6.3c-3.6-0.2-7.2,0-10.9,0    c-8.4,0-12.7-4.4-12.7-13.2C191.7,360.3,191.7,347.7,191.7,335z"/><path class="st2" d="M379.9,237.4c-0.7-31.4-12.4-58.6-33.4-81.5c-18.4-20-40.9-32.5-67.3-37.7c-7.9-1.6-15.9-2.3-23.8-2.2v0    c-7.2,0.1-14.5,0.8-21.8,2.2c-26.4,5.2-48.9,17.7-67.3,37.7c-21,22.9-32.8,50.1-33.4,81.5c-0.7,33.6-0.2,67.3-0.2,100.9    c0,3.2,0.7,6.1,2.5,8.8c3.9,5.7,9.7,7.8,16.1,7.8c11.6,0,19.6-6.7,19.4-19.1c-0.4-30.9-0.1-61.8-0.2-92.7c0-6,0.5-11.9,1.7-17.8    c8.7-41.9,43.5-69.9,83.1-70.4v0c40.4-0.5,76.3,27.7,85.1,70.3c1.2,5.8,1.7,11.8,1.7,17.8c0,30.9,0.3,61.8-0.2,92.7    c-0.2,12.4,7.9,19.2,19.4,19.1c6.4,0,12.2-2.1,16.1-7.8c1.8-2.6,2.5-5.6,2.5-8.8C380,304.7,380.6,271,379.9,237.4z"/></g></g></svg>